<svg version="1.1" xmlns="http://www.w3.org/2000/svg" viewBox="-1 -2 30 31" width="30" height="30"><g><path fill="{{FILL}}" stroke="{{STROKE}}" stroke-width="1" d="M16.92 26.41s.25.63.01 1.22l-2.8-.87-.16.92-.16-.91-2.83.85s-.19-.67.01-1.18l2.58-2.18s-.09-1.38-.64-1.8l-.15.08-.18-.34h-.32s-.3.06-.3.52h-.18s.04-.35-.16-.53h-.33s-.47-3.31-.12-3.67h.59l.06.17h.24l.07-.17h.58l.09.2h.21l-.01-1.77-.25-.2-1.75-.02L3.57 20l-.18.3s-.46-1.4.02-2.01l.16.13 6.69-5.51.11.13L13.01 11l.03-8.03s.1-2.5.91-2.74c0 0 .8 0 .96 2.77l.01 8 2.6 2.06.14-.15 6.73 5.53.12-.14s.53.56.03 1.98l-.16-.25-7.47-3.28h-1.75l-.22.17-.02 1.8h.23l.03-.19h.6l.05.18h.27l.05-.17h.59s.43.96-.15 3.68h-.27s-.24.04-.2.53h-.17s.02-.42-.27-.55h-.31l-.2.32-.16-.06s-.4.21-.67 1.85z"/></g></svg>